<svg width="93" height="102" viewBox="0 0 93 102" fill="none" xmlns="http://www.w3.org/2000/svg">
<g clip-path="url(#clip0_484_98)">
<path d="M89.5649 27.23C87.3209 21.971 84.1608 17.323 80.0818 13.287C76.0488 9.24703 71.1949 6.04803 65.5269 3.68203C59.8969 1.31703 53.6369 0.134033 46.7469 0.134033C39.9769 0.134033 33.7599 1.31703 28.0919 3.68203C22.3419 6.04803 17.4079 9.29004 13.2859 13.408C9.25089 17.488 6.06687 22.177 3.74487 27.476C1.50287 32.779 0.379883 38.487 0.379883 44.604V44.85C0.379883 50.885 1.50287 56.573 3.74487 61.915C6.02787 67.217 9.16689 71.847 13.1659 75.8C16.8159 79.378 21.1089 82.279 25.9769 84.573L40.4449 70.105C39.2539 69.801 38.0859 69.436 36.9619 68.95C33.9439 67.646 31.3139 65.791 29.0709 63.385C26.8289 60.977 25.0729 58.186 23.8089 55.003C22.5449 51.699 21.9129 48.234 21.9129 44.604V44.362C21.9129 40.609 22.5459 37.142 23.8089 33.962C25.0729 30.82 26.8289 28.067 29.0709 25.702C31.1899 23.299 33.7409 21.462 36.7169 20.199C39.7369 18.852 42.9959 18.18 46.5049 18.18C50.0099 18.18 53.2519 18.852 56.2289 20.199C59.2469 21.585 61.8778 23.461 64.1208 25.825C66.4058 28.19 68.1599 30.986 69.3829 34.205C70.6429 37.387 71.2759 40.853 71.2759 44.604V44.85C71.2759 48.48 70.6429 51.907 69.3829 55.125C68.1989 58.39 66.4869 61.18 64.2439 63.506C62.1229 65.871 59.5539 67.728 56.5369 69.073C55.3779 69.542 54.1739 69.891 52.9459 70.18L67.2869 84.52C72.1539 82.231 76.3889 79.35 79.9009 75.799C84.0209 71.641 87.2429 66.932 89.5669 61.671C91.8089 56.329 92.9299 50.638 92.9299 44.603V44.361C92.9279 38.243 91.8069 32.532 89.5649 27.23Z" fill="#17479E"/>
<path d="M46.7579 71.8401L76.2689 101.348C72.2829 97.5311 67.8779 94.6011 63.0229 92.6281C57.9599 90.5961 52.6919 89.5781 47.2269 89.5781C47.1549 89.5781 47.0769 89.5781 47.0009 89.5781C46.9139 89.5781 46.8219 89.5871 46.7349 89.5931V89.5951C46.7289 89.5951 46.7279 89.5951 46.7199 89.5951C46.7159 89.5951 46.7119 89.5951 46.7039 89.5951V89.5931C46.6159 89.5871 46.5259 89.5781 46.4399 89.5781C46.3619 89.5781 46.288 89.5781 46.213 89.5781C40.748 89.5781 35.484 90.5961 30.421 92.6281C25.566 94.6011 21.1589 97.5301 17.1689 101.348L46.6799 71.8401L46.7189 71.7991L46.7579 71.8401Z" fill="#E11B22"/>
</g>
<defs>
<clipPath id="clip0_484_98">
<rect width="93" height="102" fill="white"/>
</clipPath>
</defs>
</svg>
